<svg width="200" height="50" viewBox="0 0 200 50" fill="none" xmlns="http://www.w3.org/2000/svg">
  <path d="M31.8 38L18.5 12H12.4V38H5V5H21.8L35.1 31H41.2V5H48.6V38H31.8Z" fill="#3B82F6"/>
  <path d="M53.5 38V5H77.9V11.2H60.9V18.4H76V24.6H60.9V31.8H77.9V38H53.5Z" fill="#3B82F6"/>
  <path d="M81.6 38V5H89V31.8H104.2V38H81.6Z" fill="#3B82F6"/>
  <path d="M120.8 38.5C118.1 38.5 115.7 38 113.5 37C111.3 36 109.5 34.5 108.1 32.6C106.7 30.7 106 28.5 106 25.9V25.6H113.8V25.9C113.8 27.2 114.4 28.2 115.6 29C116.8 29.8 118.4 30.2 120.3 30.2C122.1 30.2 123.4 29.9 124.4 29.3C125.4 28.7 125.9 27.8 125.9 26.6C125.9 25.5 125.4 24.7 124.5 24.1C123.5 23.5 121.9 22.9 119.5 22.3C117.4 21.8 115.6 21.2 114.1 20.5C112.6 19.8 111.3 18.9 110.3 17.7C109.3 16.5 108.8 14.9 108.8 13C108.8 10.3 109.9 8.2 112.1 6.7C114.3 5.2 117.3 4.5 121 4.5C123.7 4.5 126.1 5 128.2 6C130.3 7 131.9 8.4 133.1 10.1C134.3 11.8 134.9 13.8 134.9 16.1V16.3H127.1V16.1C127.1 15 126.5 14.1 125.4 13.4C124.3 12.7 122.8 12.3 121 12.3C119.4 12.3 118.2 12.6 117.3 13.2C116.4 13.8 115.9 14.6 115.9 15.7C115.9 16.8 116.4 17.6 117.4 18.2C118.4 18.8 120 19.4 122.4 20C124.6 20.6 126.4 21.2 127.8 21.9C129.2 22.6 130.4 23.5 131.4 24.7C132.4 25.9 132.9 27.5 132.9 29.4C132.9 32.1 131.8 34.2 129.6 35.7C127.5 37.2 124.5 38 120.8 38.5Z" fill="#3B82F6"/>
  <path d="M138.7 38V5H146.1V18.8H160.1V5H167.5V38H160.1V25H146.1V38H138.7Z" fill="#3B82F6"/>
  <path d="M176.3 38V24.2L163.4 5H172L179.8 16.7L187.6 5H195.8L182.9 24.2V38H176.3Z" fill="#3B82F6"/>
  <circle cx="182" cy="26" r="14" fill="#EBF4FF" stroke="#3B82F6" stroke-width="2"/>
  <path d="M179 20L182 23L185 20" stroke="#3B82F6" stroke-width="2" stroke-linecap="round"/>
  <path d="M182 23V32" stroke="#3B82F6" stroke-width="2" stroke-linecap="round"/>
</svg> 